  <svg xmlns="http://www.w3.org/2000/svg" viewBox="0 0 54 59" fill="none">
    <title>danielcooper.io logo</title>
    <path
      stroke="#202B35"
      strokeWidth="2"
      d="M1.35 0h37.991v37.991H1.35z"
      transform="scale(.95482 1.04323) rotate(-45 35.516 14.062)"
    />
    <path
      fill="#202B35"
      d="M23.755 15.256c2.123 0 3.713.534 4.77 1.602 1.056 1.056 1.584 2.598 1.584 4.626 0 1.308-.259 2.454-.775 3.438a5.438 5.438 0 0 1-2.25 2.286c-.971.528-2.136.792-3.491.792l-1.044-.018a46.159 46.159 0 0 0-1.476-.036c-.985 0-1.729.018-2.233.054v-.36c.433-.024.744-.072.936-.144a.647.647 0 0 0 .415-.414c.072-.204.108-.534.108-.99v-8.928c0-.456-.037-.786-.108-.99a.647.647 0 0 0-.415-.414c-.192-.072-.503-.12-.936-.144v-.36c.42.036 1.003.054 1.747.054l1.53-.018a69.26 69.26 0 0 1 1.637-.036Zm-.45.324c-.372 0-.654.042-.846.126a.717.717 0 0 0-.378.45c-.072.216-.108.54-.108.972v9c0 .432.036.756.108.972a.717.717 0 0 0 .378.45c.192.084.48.126.864.126 1.271 0 2.273-.228 3.005-.684.733-.468 1.242-1.146 1.53-2.034.3-.888.45-2.022.45-3.402 0-1.38-.162-2.502-.485-3.366-.325-.876-.852-1.53-1.585-1.962-.72-.432-1.697-.648-2.933-.648Zm9.651 10.368c.312 0 .582.114.81.342.228.228.342.498.342.81 0 .312-.114.582-.342.81a1.107 1.107 0 0 1-.81.342c-.312 0-.582-.114-.81-.342a1.107 1.107 0 0 1-.342-.81c0-.312.114-.582.342-.81.228-.228.498-.342.81-.342ZM20.268 41.948c.312 0 .582.114.81.342.228.228.342.498.342.81 0 .312-.114.582-.342.81a1.107 1.107 0 0 1-.81.342c-.312 0-.582-.114-.81-.342a1.107 1.107 0 0 1-.342-.81c0-.312.114-.582.342-.81.228-.228.498-.342.81-.342Zm8.945-10.944c.72 0 1.332.102 1.836.306a6.23 6.23 0 0 1 1.476.864c.132.108.246.162.342.162.24 0 .396-.36.468-1.08h.414c-.048.78-.072 2.16-.072 4.14h-.414c-.132-.78-.252-1.338-.36-1.674a2.976 2.976 0 0 0-.54-.99 3.25 3.25 0 0 0-1.386-1.044 4.465 4.465 0 0 0-1.8-.36c-.78 0-1.464.258-2.052.774-.576.516-1.026 1.254-1.35 2.214-.324.948-.486 2.064-.486 3.348 0 1.308.174 2.43.522 3.366.348.936.828 1.65 1.44 2.142.624.48 1.326.72 2.106.72.6 0 1.182-.114 1.746-.342.564-.228 1.008-.57 1.332-1.026.24-.336.414-.696.522-1.08.108-.384.21-.972.306-1.764h.414c0 2.064.024 3.504.072 4.32h-.414c-.036-.384-.09-.654-.162-.81-.06-.168-.15-.252-.27-.252-.096 0-.222.048-.378.144a7.978 7.978 0 0 1-1.548.882c-.492.192-1.086.288-1.782.288-1.14 0-2.142-.258-3.006-.774-.852-.516-1.518-1.26-1.998-2.232-.468-.984-.702-2.154-.702-3.51 0-1.32.24-2.49.72-3.51.492-1.02 1.17-1.812 2.034-2.376.876-.564 1.866-.846 2.97-.846Z"
    />
  </svg>