<svg width="141" height="24" viewBox="0 0 141 24" fill="none" xmlns="http://www.w3.org/2000/svg">
<path fill-rule="evenodd" clip-rule="evenodd" d="M10.9638 1.6364V6.32784C7.50867 6.53344 4.76132 9.36489 4.76132 12.8148C4.76132 16.3987 7.72561 19.3147 11.3675 19.3147C14.8744 19.3147 17.7522 16.6116 17.9611 13.212H22.7281C22.5146 19.1965 17.5005 24 11.3675 24C5.09954 24 0 18.9825 0 12.8148C0 6.78051 4.88203 1.84649 10.9638 1.6364ZM137.669 17.0752C139.507 17.0752 141 18.5156 141 20.2893C141 22.063 139.507 23.5045 137.669 23.5045C135.831 23.5045 134.338 22.063 134.338 20.2893C134.338 18.5156 135.831 17.0752 137.669 17.0752ZM130.245 1.01711V19.5151H131.631V22.9084H128.183L126.662 21.44C125.986 22.1258 124.499 23.2675 122.099 23.2675C117.57 23.2675 114.022 19.6456 114.022 15.3379C114.022 10.9983 117.57 7.40943 122.066 7.40943C124.229 7.40943 125.681 8.32318 126.628 9.23693V2.19249L127.845 1.01711H130.245ZM92.19 7.40943C94.3189 7.40943 96.5499 8.25764 97.6317 9.72602L95.1303 12.1731C94.5222 11.4555 93.4745 10.7703 92.19 10.7703C89.5878 10.7703 87.6615 12.9239 87.6615 15.3379C87.6615 17.7201 89.5878 19.9067 92.19 19.9067C93.4745 19.9067 94.4209 19.2865 95.1645 18.4708L97.9694 20.5913C96.5163 22.1577 94.4881 23.2675 92.19 23.2675C87.8306 23.2675 84.0111 19.7756 84.0111 15.3379C84.0111 10.9008 87.7629 7.40943 92.19 7.40943ZM47.918 7.40943C50.047 7.40943 52.2779 8.25764 53.3598 9.72602L50.8584 12.1731C50.2503 11.4555 49.202 10.7703 47.918 10.7703C45.3159 10.7703 43.389 12.9239 43.389 15.3379C43.389 17.7201 45.3159 19.9067 47.918 19.9067C49.202 19.9067 50.1484 19.2865 50.8926 18.4708L53.6974 20.5913C52.2443 22.1577 50.2161 23.2675 47.918 23.2675C43.5581 23.2675 39.7392 19.7756 39.7392 15.3379C39.7392 10.9008 43.4909 7.40943 47.918 7.40943ZM102.937 1.01711V9.07334C104.018 8.15959 105.302 7.53997 106.993 7.53997C109.831 7.53997 112.603 9.30192 112.603 13.8376V22.9084H108.919V13.8376C108.919 11.8471 107.736 10.9008 106.079 10.9008C104.289 10.9008 102.937 11.9451 102.937 13.283V22.9084H99.32V2.19249L100.537 1.01711H102.937ZM76.9819 7.47442C79.8209 7.47442 82.5922 9.23693 82.5922 13.7726V22.9084H78.9423V13.7726C78.9423 11.7821 77.7261 10.8353 76.0691 10.8353C74.2784 10.8353 72.9266 11.9121 72.9266 13.283V22.9084H69.3098V10.9008H67.958V7.76855H70.8312L72.3185 9.17138C73.7038 8.09461 75.3938 7.47442 76.9819 7.47442ZM64.9846 7.76855L66.2686 9.00836V22.9084H62.6524V10.9008H61.3006V7.76855H64.9846ZM58.5629 1.01711V19.5151H59.9489V22.9084H56.3998L54.8795 21.4076V2.19249L56.0621 1.01711H58.5629ZM137.669 17.7778C136.233 17.7778 135.066 18.9033 135.066 20.2893C135.066 21.6765 136.233 22.802 137.669 22.802C139.106 22.802 140.272 21.6765 140.272 20.2893C140.272 18.9033 139.106 17.7778 137.669 17.7778ZM23.7819 0C30.0499 0 35.1494 5.0175 35.1494 11.1846C35.1494 17.2189 30.2674 22.1529 24.1856 22.363V17.6722C27.6402 17.4666 30.3875 14.6351 30.3875 11.1846C30.3875 7.60132 27.4238 4.68583 23.7819 4.68583C20.275 4.68583 17.3978 7.38899 17.1883 10.7874H12.4207C12.6342 4.80348 17.6489 0 23.7819 0ZM137.809 18.5341C138.882 18.5341 139.237 19.1644 139.237 19.7313C139.237 20.119 139.069 20.5145 138.649 20.7308L139.237 21.9101V22.1353H138.546L137.959 20.8933H137.063V22.1353H136.335V18.5341H137.809ZM137.912 19.2097H137.063V20.1997H137.912C138.248 20.1997 138.509 20.0019 138.509 19.7044C138.509 19.4069 138.248 19.2097 137.912 19.2097ZM122.369 10.7703C119.768 10.7703 117.705 12.7608 117.705 15.3379C117.705 17.9161 119.768 19.9067 122.369 19.9067C124.938 19.9067 126.932 17.9161 126.932 15.3379C126.932 12.7608 124.938 10.7703 122.369 10.7703ZM63.5287 0.866409C64.9004 0.866409 66.0124 1.96111 66.0124 3.31129C66.0124 4.6609 64.9004 5.75505 63.5287 5.75505C62.1564 5.75505 61.0444 4.6609 61.0444 3.31129C61.0444 1.96111 62.1564 0.866409 63.5287 0.866409Z" fill="#1E2738"/>
</svg>
