<svg xmlns="http://www.w3.org/2000/svg" width="392" height="115" viewBox="0 0 392 115" fill="none"><path d="M144.25 91.49V22.95H190.89V36.21H159.17V50.25H186.37V63.41H159.17V78.24H190.89V91.5H144.25V91.49Z" fill="black"></path><path d="M242.12 63.4H216V91.48H201.07V22.95H216V50.25H242.12V22.95H257.05V91.49H242.12V63.41V63.4Z" fill="black"></path><path d="M313.08 91.49L308.17 75.19H285.29L280.38 91.49H265.26L287.85 22.95H306.31L328.6 91.49H313.09H313.08ZM296.88 36.5H296.39L288.83 62.52H304.54L296.88 36.5Z" fill="black"></path><path d="M336.99 22.95H370.28C381.57 22.95 388.35 29.92 388.35 40.53C388.35 51.14 382.56 54.97 375.59 55.26V55.85C382.07 55.85 391.01 60.17 391.01 71.95C391.01 82.75 383.45 91.49 373.33 91.49H337V22.95H336.99ZM351.92 51.04H366.75C370.68 51.04 373.03 48.68 373.03 44.76V41.81C373.03 37.88 370.67 35.53 366.75 35.53H351.92V51.05V51.04ZM351.92 78.93H369.1C373.03 78.93 375.48 76.67 375.48 72.74V69.4C375.48 65.47 373.03 63.21 369.1 63.21H351.92V78.92V78.93Z" fill="black"></path><path d="M114.11 114.11V0L-1.52588e-05 0V114.11H114.11Z" fill="#1CEAA0"></path><path d="M89.8999 34.52V22.37H24.21V34.52H48.47V50.85H24.21V62.99H38.23V79.59H24.21V91.74H89.8999V79.59H48.47V62.99H89.8999V50.85H58.7099V34.52H89.8999Z" fill="black"></path></svg>