<?xml version="1.0" encoding="utf-8"?>
<!-- Generator: Adobe Illustrator 28.1.0, SVG Export Plug-In . SVG Version: 6.00 Build 0)  -->
<svg version="1.1" id="Logo_00000014596116468729532280000017191713201639885983_"
	 xmlns="http://www.w3.org/2000/svg" xmlns:xlink="http://www.w3.org/1999/xlink" x="0px" y="0px" viewBox="0 0 1138 257"
	 style="enable-background:new 0 0 1138 257;" xml:space="preserve">
<style type="text/css">
	.st0{fill-rule:evenodd;clip-rule:evenodd;}
</style>
<polygon id="y_00000032617322186353514290000010322909216851574170_" points="1138,65.2 1107.9,65.2 1073.2,165.2 1070.2,165.2 
	1031.6,65.2 1001.9,65.2 1050.5,193 1062.5,193.1 1040.1,257 1070.2,257 "/>
<path id="f_00000038387316516240969610000013934732381295974019_" d="M970.1,65.2v-5.4c0-25.3,5.1-38.2,34.9-30.5l8.7-25
	c-4.8-1.9-12.5-4.2-20.5-4.2c-26.4,0-52.6,15.7-52.6,55.9v9.3h-16.5v26.4h16.5V193h29.5V91.7h19.5V65.2H970.1z"/>
<path id="i_tittle_00000174603962757188212680000014655624059279414189_" class="st0" d="M887.1,7.3c4.1,0,8,1.2,11.4,3.5
	c3.4,2.2,6,5.5,7.5,9.2c1.5,3.8,2,7.9,1.2,11.9c-0.8,4-2.8,7.6-5.6,10.5c-2.8,2.9-6.5,4.8-10.5,5.6c-4,0.8-8.1,0.4-11.8-1.2
	c-3.8-1.5-6.9-4.2-9.2-7.5c-2.2-3.4-3.5-7.4-3.5-11.4c0-5.4,2.2-10.6,6-14.5C876.4,9.5,881.6,7.4,887.1,7.3L887.1,7.3z"/>
<path id="i_00000030478739969161942010000005800698844679951017_" class="st0" d="M899.1,65.2l10.6,10.4V193h-29.8V91.4h-11.1V65.1
	L899.1,65.2L899.1,65.2z"/>
<path id="l_00000183944013375016645440000009434948792180817819_" class="st0" d="M844.1,1.6v163.1h11.4V193h-29.2l-12.5-12.4V11.5
	l9.7-9.9H844.1z"/>
<path id="d_00000011720280335463984510000006946417995715849364_" d="M787,164.6V1.6h-19.7l-10,9.9v67c-4.9-5-10.8-8.9-17.3-11.5
	c-6.5-2.6-13.4-3.9-20.4-3.9c-8.7,0-17.3,1.8-25.4,5.1c-8,3.4-15.3,8.3-21.5,14.5c-6.2,6.2-11,13.5-14.3,21.6s-5,16.7-5,25.5
	c0,8.7,1.8,17.4,5.1,25.5c3.4,8.1,8.3,15.4,14.4,21.6c6.2,6.2,13.5,11,21.5,14.4c8,3.3,16.7,5,25.4,5c7,0.1,13.9-1.1,20.4-3.8
	c6.5-2.6,12.3-6.6,17.2-11.5L770,193h28.4v-28.4L787,164.6L787,164.6z M722.1,167.9c-10.1,0-19.8-4-27-11.2
	c-7.2-7.2-11.2-17-11.2-27.1c0-10.2,4-19.9,11.2-27.1c7.2-7.2,16.9-11.2,27-11.2c10.1,0,19.9,4,27,11.2c7.2,7.2,11.2,17,11.2,27.1
	c0,10.2-4,19.9-11.2,27.1C742,163.9,732.3,167.9,722.1,167.9z"/>
<path id="o_00000005977409219597943310000013632846349651354812_" d="M639.7,129.4c0,37.7-30.6,66.9-66.7,66.9
	c-36.4,0-66.9-29.2-66.9-66.9c0-37.7,30.6-66.7,66.9-66.7C609.2,62.8,639.7,91.7,639.7,129.4z M609.7,129.4
	c0-20.7-15.4-38.3-36.6-38.3c-21.5,0-36.9,17.6-36.9,38.3c0,20.7,15.7,38.6,36.9,38.6C594,168,609.7,150.1,609.7,129.4z"/>
<path id="M" d="M286.2,1.8h32l70.9,99.9l70.6-99.9h32v191.3h-31.2V54.2l-60.7,86.3H378l-60.1-85.8v138.4h-31.7V1.8z"/>
<path id="Logo_Mark_00000146477145180533506800000016624116870624282247_" d="M223.4,25.6c0-13.2-10.7-23.9-23.9-23.9h-16
	c-13.2,0-23.9,10.7-23.9,23.9v39.9H23.9C10.7,65.4,0,76.2,0,89.4v16c0,13.2,10.7,23.9,23.9,23.9h55.9c13.2,0,23.9,10.7,23.9,23.9
	v39.9H63.8c-13.2,0-23.9,10.7-23.9,23.9v16c0,13.2,10.7,23.9,23.9,23.9h16c13.2,0,23.9-10.7,23.9-23.9v-39.9h103.7
	c13.2,0,23.9-10.7,23.9-23.9v-16c0-13.2-10.7-23.9-23.9-23.9h-23.9c-13.2,0-23.9-10.7-23.9-23.9V65.4h39.9
	c13.2,0,23.9-10.7,23.9-23.9V25.6z"/>
</svg>
